<svg xmlns="http://www.w3.org/2000/svg" xmlns:xlink="http://www.w3.org/1999/xlink" version="1.1" x="0px" y="0px" viewBox="0 0 100 125" style="enable-background:new 0 0 100 100;" xml:space="preserve"><style type="text/css">
	.st0{fill-rule:evenodd;clip-rule:evenodd;}
</style><g transform="translate(493.000000, 427.000000)"><path class="st0" d="M-431.6-407.7c3.5-3.5,9.2-3.5,12.8,0l6.5,6.5c3.5,3.5,3.5,9.2,0,12.8l-42.1,42.1   c-1.7,1.7-4,2.6-6.4,2.6h-12.5c-1.7,0-3-1.3-3-3v-12.5c0-2.4,1-4.7,2.6-6.4L-431.6-407.7z M-423.1-403.4c-1.2-1.2-3.1-1.2-4.3,0   l-5.7,5.7l10.8,10.8l5.7-5.7c1.2-1.2,1.2-3.1,0-4.3L-423.1-403.4z M-426.5-382.8l-10.8-10.8l-32.2,32.2c-0.6,0.6-0.9,1.3-0.9,2.1   v9.5h9.5c0.8,0,1.6-0.3,2.1-0.9L-426.5-382.8z"/></g><text x="0" y="115" fill="#000000" font-size="5px" font-weight="bold" font-family="'Helvetica Neue', Helvetica, Arial-Unicode, Arial, Sans-serif">Created by Shiva</text><text x="0" y="120" fill="#000000" font-size="5px" font-weight="bold" font-family="'Helvetica Neue', Helvetica, Arial-Unicode, Arial, Sans-serif">from the Noun Project</text></svg>