<svg xmlns="http://www.w3.org/2000/svg" xmlns:xlink="http://www.w3.org/1999/xlink" xml:space="preserve" version="1.1" style="shape-rendering:geometricPrecision;text-rendering:geometricPrecision;image-rendering:optimizeQuality;" viewBox="0 0 75620 117275" x="0px" y="0px" fill-rule="evenodd" clip-rule="evenodd"><defs><style type="text/css">
   
    .fil0 {fill:black;fill-rule:nonzero}
   
  </style></defs><g><path class="fil0" d="M37810 75620l-7700 0 0 3260 1630 0c780,0 1410,630 1410,1400 0,1290 520,2460 1360,3300l0 0c840,840 2010,1360 3300,1360 1290,0 2450,-520 3300,-1360 840,-840 1360,-2010 1360,-3300 0,-770 630,-1400 1410,-1400l120 0 130 0 28680 0 0 -3260 -35000 0zm7470 -34780l3400 -5670c30,-60 60,-110 90,-150l30 -50 0 0 2800 -4670 -6320 4220 0 6320zm13890 -15590l3230 1080c80,20 170,50 250,80l4090 1370 0 -7570 -7570 5040zm7570 9530l-3400 5670c-20,50 -50,110 -90,150l-30 50 -2800 4670 6320 -4220 0 -6320zm-13890 15580l-3220 -1070c-90,-20 -170,-50 -260,-80l-4090 -1370 0 7570 7570 -5050zm3790 -23000l-2290 3800 4570 -3040 -2280 -760zm-8100 13490l-2570 4270 2570 860 0 -5130zm4570 6650l2280 760 2280 -3800 -4560 3040zm10370 -12730l2570 -4280 -2570 -850 0 5130zm-24270 -8340l0 45160 33600 -22400 0 -45160 -33600 22400zm-2810 45160l0 -45160 -33590 -22400 0 45160 33590 22400zm39220 -21650l0 30340c0,780 -630,1410 -1410,1410l-29060 0c-290,1500 -1020,2840 -2060,3880 -1350,1350 -3220,2180 -5280,2180 -2060,0 -3920,-830 -5280,-2180l-10 -10c-1030,-1040 -1760,-2380 -2050,-3870l-360 0 0 10730c0,360 -130,720 -410,990 -550,550 -1440,550 -1980,0l-5080 -5070 -5050 5050c-260,270 -620,430 -1020,430 -770,0 -1400,-630 -1400,-1400l0 -10730 -13770 0c-770,0 -1400,-630 -1400,-1410l0 -78880c0,-770 630,-1400 1400,-1400 300,0 580,90 810,250l35600 23740 35630 -23750c640,-430 1510,-260 1940,390 160,240 240,510 240,770l0 48540zm-2810 22870l0 -8790 -26360 8790 26360 0zm0 -11740l0 -8500 -25510 17010 25510 -8510zm-70000 -8500l0 8500 12360 4120 0 -4380 -12360 -8240zm0 11450l0 8790 12360 0 0 -4670 -12360 -4120zm64530 -47590c230,-160 510,-250 810,-250 280,0 550,90 770,230 90,60 170,120 240,200 240,250 390,600 390,970l0 24270c0,290 -80,560 -230,780 -60,90 -120,160 -200,240 -70,60 -140,120 -220,170l-24230 16150c-130,90 -270,160 -430,200 -140,40 -260,50 -400,50 -230,-10 -430,-70 -620,-160l-50 -30c-140,-80 -270,-190 -380,-320 -200,-240 -320,-560 -320,-900l0 -24270c0,-250 70,-500 200,-710l30 -50c80,-120 180,-240 300,-330l110 -80 24230 -16160zm-49360 46250l0 26350 3670 -3670c550,-550 1440,-550 1980,0l3670 3670 0 -20130 -9320 -6220zm-2810 16200l0 -3260 -12360 0 0 3260 12360 0zm45500 -39800l0 -8760 -9320 6220 0 8760 9320 -6220zm-53980 3940c-640,-430 -820,-1300 -390,-1940 430,-650 1310,-820 1950,-390l24270 16180c650,430 820,1300 390,1940 -430,650 -1300,820 -1950,390l-24270 -16180zm0 -12130c-640,-430 -820,-1300 -390,-1950 430,-650 1310,-820 1950,-390l24270 16180c650,430 820,1300 390,1950 -430,640 -1300,820 -1950,390l-24270 -16180zm0 -12140c-640,-430 -820,-1300 -390,-1940 430,-650 1310,-820 1950,-390l24270 16180c650,430 820,1300 390,1940 -430,650 -1300,820 -1950,390l-24270 -16180z"/></g><text x="0" y="93835" fill="#000000" font-size="5px" font-weight="bold" font-family="'Helvetica Neue', Helvetica, Arial-Unicode, Arial, Sans-serif">Created by Dmitry Mamaev</text><text x="0" y="93840" fill="#000000" font-size="5px" font-weight="bold" font-family="'Helvetica Neue', Helvetica, Arial-Unicode, Arial, Sans-serif">from the Noun Project</text></svg>