<svg xmlns="http://www.w3.org/2000/svg" xmlns:xlink="http://www.w3.org/1999/xlink" version="1.1" x="0px" y="0px" viewBox="0 0 28 35" style="enable-background:new 0 0 28 28;" xml:space="preserve"><style type="text/css">
	.st0{display:none;}
	.st1{display:inline;}
</style><g><path d="M25.71,13.29l-4-4c-0.39-0.39-1.02-0.39-1.41,0s-0.39,1.02,0,1.41L22.59,13H8c-0.55,0-1,0.45-1,1s0.45,1,1,1h14.59   l-2.29,2.29c-0.39,0.39-0.39,1.02,0,1.41C20.49,18.9,20.74,19,21,19s0.51-0.1,0.71-0.29l4-4C26.1,14.32,26.1,13.68,25.71,13.29z"/><path d="M17,18c-0.55,0-1,0.45-1,1v3H4V6h12v3c0,0.55,0.45,1,1,1s1-0.45,1-1V5c0-0.55-0.45-1-1-1H3C2.45,4,2,4.45,2,5v18   c0,0.55,0.45,1,1,1h14c0.55,0,1-0.45,1-1v-4C18,18.45,17.55,18,17,18z"/></g><text x="0" y="43" fill="#000000" font-size="5px" font-weight="bold" font-family="'Helvetica Neue', Helvetica, Arial-Unicode, Arial, Sans-serif">Created by andika</text><text x="0" y="48" fill="#000000" font-size="5px" font-weight="bold" font-family="'Helvetica Neue', Helvetica, Arial-Unicode, Arial, Sans-serif">from the Noun Project</text></svg>