<svg xmlns="http://www.w3.org/2000/svg" viewBox="0 0 70 87.5" x="0px" y="0px"><path d="M47.25,58.76H1.43a1,1,0,0,1-1-1V12.06a1,1,0,0,1,.29-.71L11.78.29A1,1,0,0,1,12.49,0H47.25a1,1,0,0,1,1,1V57.76A1,1,0,0,1,47.25,58.76Zm-44.82-2H46.25V2H12.9L2.43,12.47Z"/><path d="M54.29,70A1.07,1.07,0,0,1,54,70L9.69,58.72A1,1,0,0,1,9,57.51a1,1,0,0,1,1.21-.72l43.39,11,13.78-53L47,9.5a1,1,0,0,1,.51-1.94L68.82,13.1a1,1,0,0,1,.72,1.22L55.26,69.25A1,1,0,0,1,54.29,70Z"/><path d="M12.49,13.06H1.43a1,1,0,0,1,0-2H11.49V1a1,1,0,0,1,2,0V12.06A1,1,0,0,1,12.49,13.06Z"/><path d="M39.58,22.52H9.1a1,1,0,1,1,0-2H39.58a1,1,0,0,1,0,2Z"/><path d="M39.58,31.44H9.1a1,1,0,1,1,0-2H39.58a1,1,0,0,1,0,2Z"/><path d="M39.58,40.37H9.1a1,1,0,0,1,0-2H39.58a1,1,0,0,1,0,2Z"/><path d="M39.58,49.29H9.1a1,1,0,0,1,0-2H39.58a1,1,0,0,1,0,2Z"/><text x="0" y="85" fill="#000000" font-size="5px" font-weight="bold" font-family="'Helvetica Neue', Helvetica, Arial-Unicode, Arial, Sans-serif">Created by Jamie Crookes</text><text x="0" y="90" fill="#000000" font-size="5px" font-weight="bold" font-family="'Helvetica Neue', Helvetica, Arial-Unicode, Arial, Sans-serif">from the Noun Project</text></svg>