<svg xmlns="http://www.w3.org/2000/svg" xmlns:xlink="http://www.w3.org/1999/xlink" version="1.1" x="0px" y="0px" viewBox="0 0 100 125" enable-background="new 0 0 100 100" xml:space="preserve"><path d="M92.5,27.5h-65c-0.7,0-1.3,0.3-1.8,0.7l-20,20c-1,1-1,2.6,0,3.5l20,20c0.5,0.5,1.1,0.7,1.8,0.7h65c1.4,0,2.5-1.1,2.5-2.5V30  C95,28.6,93.9,27.5,92.5,27.5z M90,67.5H28.5L11,50l17.5-17.5H90V67.5z"/><path d="M48.2,62.4c0.5,0.5,1.1,0.7,1.8,0.7s1.3-0.2,1.8-0.7l8.8-8.8l8.8,8.8c0.5,0.5,1.1,0.7,1.8,0.7s1.3-0.2,1.8-0.7  c1-1,1-2.6,0-3.5L64.1,50l8.8-8.8c1-1,1-2.6,0-3.5c-1-1-2.6-1-3.5,0l-8.8,8.8l-8.8-8.8c-1-1-2.6-1-3.5,0c-1,1-1,2.6,0,3.5l8.8,8.8  l-8.8,8.8C47.3,59.8,47.3,61.4,48.2,62.4z"/><text x="0" y="115" fill="#000000" font-size="5px" font-weight="bold" font-family="'Helvetica Neue', Helvetica, Arial-Unicode, Arial, Sans-serif">Created by Arthur Shlain</text><text x="0" y="120" fill="#000000" font-size="5px" font-weight="bold" font-family="'Helvetica Neue', Helvetica, Arial-Unicode, Arial, Sans-serif">from the Noun Project</text></svg>