<svg xmlns="http://www.w3.org/2000/svg" xmlns:xlink="http://www.w3.org/1999/xlink" version="1.1" x="0px" y="0px" viewBox="0 0 96 120" style="enable-background:new 0 0 96 96;" xml:space="preserve"><g><g><path d="M48,3.3C23.4,3.3,3.3,23.4,3.3,48s20,44.7,44.7,44.7s44.7-20,44.7-44.7S72.6,3.3,48,3.3z M24.9,79    c4.8-8.2,13.7-13.5,23.3-13.5c9.6,0,18.4,5.1,23.2,13.3c-6.5,4.9-14.6,7.9-23.3,7.9C39.3,86.7,31.3,83.8,24.9,79z M75.9,74.8    c-6-9.5-16.3-15.2-27.7-15.2c-11.3,0-21.9,6-27.8,15.4c-6.8-7-11-16.5-11-27C9.3,26.7,26.7,9.3,48,9.3S86.7,26.7,86.7,48    C86.7,58.4,82.6,67.8,75.9,74.8z"/><path d="M48,21.7c-8.7,0-15.9,7.1-15.9,15.9c0,8.7,7.1,15.9,15.9,15.9s15.9-7.1,15.9-15.9C63.9,28.8,56.7,21.7,48,21.7z M48,47.4    c-5.4,0-9.9-4.4-9.9-9.9c0-5.4,4.4-9.9,9.9-9.9s9.9,4.4,9.9,9.9C57.9,43,53.4,47.4,48,47.4z"/></g></g><text x="0" y="111" fill="#000000" font-size="5px" font-weight="bold" font-family="'Helvetica Neue', Helvetica, Arial-Unicode, Arial, Sans-serif">Created by Drishya</text><text x="0" y="116" fill="#000000" font-size="5px" font-weight="bold" font-family="'Helvetica Neue', Helvetica, Arial-Unicode, Arial, Sans-serif">from the Noun Project</text></svg>