<svg xmlns="http://www.w3.org/2000/svg" xmlns:xlink="http://www.w3.org/1999/xlink" version="1.1" baseProfile="basic" x="0px" y="0px" viewBox="0 0 90 112.5" xml:space="preserve"><path d="M88.157,35.458h-2.293c-1.952,0-3.735-1.203-4.372-3.047c-0.512-1.482-1.112-2.923-1.794-4.317  c-0.853-1.745-0.451-3.846,0.922-5.219l1.644-1.644c0.72-0.72,0.72-1.887,0-2.607L71.376,7.736c-0.36-0.36-0.832-0.54-1.303-0.54  c-0.472,0-0.944,0.18-1.304,0.54L67.125,9.38c-0.887,0.887-2.078,1.369-3.28,1.369c-0.659,0-1.321-0.145-1.939-0.447  C60.513,9.62,59.072,9.02,57.59,8.508c-1.845-0.637-3.047-2.42-3.047-4.372V1.843C54.542,0.825,53.717,0,52.699,0H37.301  c-1.018,0-1.843,0.825-1.843,1.843v2.293c0,1.952-1.203,3.735-3.047,4.372c-1.482,0.512-2.923,1.112-4.317,1.794  c-0.618,0.302-1.28,0.447-1.939,0.447c-1.202,0-2.393-0.482-3.28-1.369l-1.644-1.644c-0.36-0.36-0.832-0.54-1.303-0.54  s-0.943,0.18-1.303,0.54L7.736,18.624c-0.72,0.72-0.72,1.887,0,2.607l1.644,1.644c1.373,1.373,1.775,3.474,0.922,5.219  C9.62,29.487,9.02,30.928,8.508,32.41c-0.637,1.845-2.42,3.047-4.372,3.047H1.843C0.825,35.458,0,36.283,0,37.301v15.398  c0,1.018,0.825,1.843,1.843,1.843h2.293c1.952,0,3.735,1.203,4.372,3.047c0.512,1.482,1.112,2.923,1.794,4.317  c0.853,1.745,0.451,3.846-0.922,5.219l-1.644,1.644c-0.72,0.72-0.72,1.887,0,2.607l10.888,10.888c0.36,0.36,0.832,0.54,1.303,0.54  s0.943-0.18,1.303-0.54l1.644-1.644c0.887-0.887,2.078-1.369,3.28-1.369c0.659,0,1.321,0.145,1.939,0.447  c1.394,0.681,2.835,1.282,4.317,1.794c1.845,0.637,3.047,2.42,3.047,4.372v2.293c0,1.018,0.825,1.843,1.843,1.843h15.398  c1.018,0,1.843-0.825,1.843-1.843v-2.293c0-1.952,1.203-3.735,3.047-4.372c1.482-0.512,2.923-1.112,4.317-1.794  c0.618-0.302,1.28-0.447,1.939-0.447c1.202,0,2.392,0.481,3.28,1.369l1.644,1.644c0.36,0.36,0.832,0.54,1.303,0.54  c0.472,0,0.943-0.18,1.303-0.54l10.888-10.888c0.72-0.72,0.72-1.887,0-2.607l-1.643-1.643c-1.373-1.373-1.775-3.474-0.922-5.219  c0.681-1.394,1.282-2.835,1.794-4.317c0.637-1.845,2.42-3.047,4.372-3.047h2.293c1.018,0,1.843-0.825,1.843-1.843V37.301  C90,36.283,89.175,35.458,88.157,35.458z M68.675,46.927c-0.908,11.513-10.235,20.84-21.747,21.748  c-0.648,0.051-1.291,0.076-1.928,0.076c-13.754,0-24.778-11.691-23.675-25.678c0.908-11.513,10.235-20.84,21.748-21.747  c0.648-0.051,1.29-0.076,1.927-0.076C58.754,21.249,69.778,32.94,68.675,46.927z"/><text x="0" y="105" fill="#000000" font-size="5px" font-weight="bold" font-family="'Helvetica Neue', Helvetica, Arial-Unicode, Arial, Sans-serif">Created by iconpacks</text><text x="0" y="110" fill="#000000" font-size="5px" font-weight="bold" font-family="'Helvetica Neue', Helvetica, Arial-Unicode, Arial, Sans-serif">from the Noun Project</text></svg>