<svg xmlns="http://www.w3.org/2000/svg" xmlns:xlink="http://www.w3.org/1999/xlink" version="1.1" x="0px" y="0px" viewBox="0 0 480 600" style="enable-background:new 0 0 480 480;" xml:space="preserve"><g><path d="M390,205h-19.6c-3-11.4-7.5-22.3-13.4-32.4l13.9-13.9c3.9-3.9,3.9-10.2,0-14.1l-35.4-35.4c-3.9-3.9-10.2-3.9-14.1,0   L307.5,123c-10.2-5.9-21.1-10.5-32.5-13.5V90c0-5.5-4.5-10-10-10h-50c-5.5,0-10,4.5-10,10v19.4c-11.4,3-22.3,7.6-32.5,13.5   l-13.8-13.8c-3.9-3.9-10.2-3.9-14.1,0l-35.4,35.4c-3.9,3.9-3.9,10.2,0,14.1l13.7,13.7c-5.9,10.2-10.5,21.2-13.5,32.6H90   c-5.5,0-10,4.5-10,10v50c0,5.5,4.5,10,10,10h19.4c3,11.4,7.6,22.3,13.5,32.5l-13.7,13.8c-3.9,3.9-3.9,10.2,0,14.1l35.4,35.4   c3.9,3.9,10.2,3.9,14.1,0l13.8-13.8c10.2,5.9,21.2,10.4,32.6,13.5V390c0,5.5,4.5,10,10,10h50c5.5,0,10-4.5,10-10v-19.5   c11.4-3.1,22.3-7.6,32.5-13.5l13.8,13.8c3.9,3.9,10.2,3.9,14.1,0l35.4-35.4c3.9-3.9,3.9-10.2,0-14.1L357,307.5   c5.9-10.2,10.4-21.1,13.4-32.5H390c5.5,0,10-4.5,10-10v-50C400,209.5,395.5,205,390,205z M380,255h-17.5c-4.8,0-8.8,3.3-9.8,8   c-2.9,14.4-8.6,28.1-16.7,40.4c-2.6,4-2.1,9.2,1.2,12.6l12.4,12.4l-21.2,21.2L316,337.3c-3.4-3.4-8.6-3.9-12.6-1.3   c-12.3,8.2-26,13.9-40.4,16.8c-4.7,1-8,5-8,9.8V380h-30v-17.4c0-4.8-3.3-8.8-8-9.8c-14.4-2.9-28.2-8.6-40.5-16.8   c-4-2.6-9.2-2.1-12.6,1.3l-12.3,12.3l-21.2-21.2l12.3-12.3c3.4-3.4,3.9-8.6,1.3-12.6c-8.2-12.3-13.9-26-16.9-40.5c-1-4.7-5-8-9.8-8   H100v-30h17.3c4.8,0,8.8-3.3,9.8-8c2.9-14.5,8.6-28.2,16.8-40.5c2.6-4,2.1-9.2-1.3-12.6l-12.3-12.3l21.2-21.2l12.3,12.3   c3.4,3.4,8.6,3.9,12.6,1.3c12.3-8.2,26-13.9,40.5-16.8c4.7-1,8-5,8-9.8V100h30v17.4c0,4.8,3.3,8.8,8,9.8   c14.4,2.9,28.2,8.6,40.4,16.8c4,2.6,9.2,2.1,12.6-1.3l12.4-12.4l21.2,21.2L337.2,164c-3.4,3.4-3.9,8.6-1.2,12.6   c8.1,12.3,13.8,26,16.7,40.4c1,4.7,5,8,9.8,8H380V255z"/><path d="M239.9,180c-33.1,0-60,26.9-60,60s26.9,60,60,60s60-26.9,60-60C299.9,206.9,273,180,239.9,180z M239.9,280   c-22.1,0-40-17.9-40-40s17.9-40,40-40s40,17.9,40,40S262,280,239.9,280z"/></g><text x="0" y="495" fill="#000000" font-size="5px" font-weight="bold" font-family="'Helvetica Neue', Helvetica, Arial-Unicode, Arial, Sans-serif">Created by Digithrust</text><text x="0" y="500" fill="#000000" font-size="5px" font-weight="bold" font-family="'Helvetica Neue', Helvetica, Arial-Unicode, Arial, Sans-serif">from the Noun Project</text></svg>