<svg height='100px' width='100px'  fill="#000000" xmlns="http://www.w3.org/2000/svg" viewBox="0 0 512 512" x="0px" y="0px"><title>setting</title><path d="M502.27,210.9a34.9,34.9,0,0,0-23.84-10.73l-35.89-1.48a193.12,193.12,0,0,0-14.14-34l24.36-26.47a34.94,34.94,0,0,0-1-48.48L422.29,60.25a34.94,34.94,0,0,0-48.48-1L347.26,83.67a194.14,194.14,0,0,0-33.94-14l-1.49-36.06A35,35,0,0,0,276.83,0H235.17a35,35,0,0,0-35,33.57l-1.49,36.06a194.14,194.14,0,0,0-33.94,14L138.19,59.24a35,35,0,0,0-48.48,1L60.25,89.71a34.94,34.94,0,0,0-1,48.48L83.6,164.66a193.12,193.12,0,0,0-14.14,34l-35.89,1.48A35,35,0,0,0,0,235.17v41.66a35,35,0,0,0,33.57,35l35.73,1.48a194.16,194.16,0,0,0,14.13,34.22L59.24,373.81a35,35,0,0,0,1,48.48l29.46,29.46a35,35,0,0,0,48.48,1l26.2-24.12a192.87,192.87,0,0,0,34.31,14.23l1.47,35.56a35,35,0,0,0,35,33.57h41.66a35,35,0,0,0,35-33.57l1.47-35.56a192.87,192.87,0,0,0,34.31-14.23l26.2,24.12a34.94,34.94,0,0,0,48.48-1l29.46-29.46a35,35,0,0,0,1-48.48l-24.19-26.28a194.16,194.16,0,0,0,14.13-34.22l35.73-1.48a35,35,0,0,0,33.57-35V235.17A34.94,34.94,0,0,0,502.27,210.9ZM256,371A115,115,0,1,1,371,256,115.13,115.13,0,0,1,256,371Z"></path></svg>